<svg width="48" height="48" xmlns="http://www.w3.org/2000/svg">

 <g>
  <title>background</title>
  <rect fill="none" id="canvas_background" height="402" width="582" y="-1" x="-1"/>
 </g>
 <g>
  <title fill="#c42f2f">Layer 1</title>
  <path fill="#c42f2f" id="svg_2" d="m21,22c-2.200001,0 -4,-1.799999 -4,-4s1.799999,-4 4,-4s4,1.8 4,4s-1.799999,4 -4,4zm0,-6c-1.1,0 -2,0.9 -2,2s0.9,2 2,2s2,-0.9 2,-2s-0.9,-2 -2,-2z"/>
  <path fill="#c42f2f" id="svg_3" d="m43,9l-38,0c-1.7,0 -3,1.3 -3,3l0,24c0,1.700001 1.3,3 3,3l38,0c1.700001,0 3,-1.299999 3,-3l0,-24c0,-1.7 -1.299999,-3 -3,-3zm-38,2l38,0c0.599998,0 1,0.4 1,1l0,1.5l-20.1,16.299999l-11,-7l-9,6.300001l0,-17.1c0.1,-0.6 0.5,-1 1.1,-1zm38,26l-38,0c-0.6,0 -1,-0.400002 -1,-1l0,-4.5l9,-6.299999l11,7l20,-16.1l0,19.9c0,0.599998 -0.400002,1 -1,1z"/>
 </g>
</svg>