<svg width="48" height="48" xmlns="http://www.w3.org/2000/svg">

 <g>
  <title>background</title>
  <rect fill="none" id="canvas_background" height="402" width="582" y="-1" x="-1"/>
 </g>
 <g>
  <title fill="#c42f2f">Layer 1</title>
  <path fill="#c42f2f" id="svg_3" d="m20.799999,27.200001l2.1,-6.300001l15.1,-15.099999l4.200001,4.2l-15.1,15.1l-6.300001,2.1zm3.900002,-5.300001l-0.700001,2.1l2.1,-0.700001l13.300001,-13.299999l-1.400002,-1.4l-13.299999,13.299999z"/>
  <path fill="#c42f2f" id="svg_5" d="m42.900002,9.3l-4.200001,-4.2l1.399998,-1.4c1.200001,-1.2 3,-1.2 4.200001,0c0.600002,0.6 0.900002,1.3 0.900002,2.1c0,0.8 -0.299999,1.5 -0.900002,2.1l-1.399998,1.4zm-1.400002,-4.2l1.400002,1.4c0.199997,-0.2 0.299999,-0.4 0.299999,-0.7c0,-0.3 -0.100002,-0.5 -0.299999,-0.7c-0.400002,-0.4 -1,-0.4 -1.400002,0z"/>
  <path fill="#c42f2f" id="svg_7" d="m38,46l-33,0c-1.7,0 -3,-1.299999 -3,-3l0,-33c0,-1.7 1.3,-3 3,-3l27,0l0,2l-27,0c-0.6,0 -1,0.4 -1,1l0,33c0,0.599998 0.4,1 1,1l33,0c0.599998,0 1,-0.400002 1,-1l0,-27l2,0l0,27c0,1.700001 -1.299999,3 -3,3z"/>
 </g>
</svg>